<svg width="24" height="26" viewBox="0 0 24 26" xmlns="http://www.w3.org/2000/svg">
    <path d="M3.25 25.5C2.5625 25.5 1.97375 25.2554 1.48375 24.7663C0.994583 24.2763 0.75 23.6875 0.75 23V5.5C0.75 4.8125 0.994583 4.22417 1.48375 3.735C1.97375 3.245 2.5625 3 3.25 3H4.5V0.5H7V3H17V0.5H19.5V3H20.75C21.4375 3 22.0263 3.245 22.5163 3.735C23.0054 4.22417 23.25 4.8125 23.25 5.5V23C23.25 23.6875 23.0054 24.2763 22.5163 24.7663C22.0263 25.2554 21.4375 25.5 20.75 25.5H3.25ZM3.25 23H20.75V10.5H3.25V23ZM3.25 8H20.75V5.5H3.25V8ZM12 15.5C11.6458 15.5 11.3492 15.38 11.11 15.14C10.87 14.9008 10.75 14.6042 10.75 14.25C10.75 13.8958 10.87 13.5987 11.11 13.3587C11.3492 13.1196 11.6458 13 12 13C12.3542 13 12.6513 13.1196 12.8913 13.3587C13.1304 13.5987 13.25 13.8958 13.25 14.25C13.25 14.6042 13.1304 14.9008 12.8913 15.14C12.6513 15.38 12.3542 15.5 12 15.5ZM7 15.5C6.64583 15.5 6.34875 15.38 6.10875 15.14C5.86958 14.9008 5.75 14.6042 5.75 14.25C5.75 13.8958 5.86958 13.5987 6.10875 13.3587C6.34875 13.1196 6.64583 13 7 13C7.35417 13 7.65125 13.1196 7.89125 13.3587C8.13042 13.5987 8.25 13.8958 8.25 14.25C8.25 14.6042 8.13042 14.9008 7.89125 15.14C7.65125 15.38 7.35417 15.5 7 15.5ZM17 15.5C16.6458 15.5 16.3492 15.38 16.11 15.14C15.87 14.9008 15.75 14.6042 15.75 14.25C15.75 13.8958 15.87 13.5987 16.11 13.3587C16.3492 13.1196 16.6458 13 17 13C17.3542 13 17.6508 13.1196 17.89 13.3587C18.13 13.5987 18.25 13.8958 18.25 14.25C18.25 14.6042 18.13 14.9008 17.89 15.14C17.6508 15.38 17.3542 15.5 17 15.5ZM12 20.5C11.6458 20.5 11.3492 20.38 11.11 20.14C10.87 19.9008 10.75 19.6042 10.75 19.25C10.75 18.8958 10.87 18.5992 11.11 18.36C11.3492 18.12 11.6458 18 12 18C12.3542 18 12.6513 18.12 12.8913 18.36C13.1304 18.5992 13.25 18.8958 13.25 19.25C13.25 19.6042 13.1304 19.9008 12.8913 20.14C12.6513 20.38 12.3542 20.5 12 20.5ZM7 20.5C6.64583 20.5 6.34875 20.38 6.10875 20.14C5.86958 19.9008 5.75 19.6042 5.75 19.25C5.75 18.8958 5.86958 18.5992 6.10875 18.36C6.34875 18.12 6.64583 18 7 18C7.35417 18 7.65125 18.12 7.89125 18.36C8.13042 18.5992 8.25 18.8958 8.25 19.25C8.25 19.6042 8.13042 19.9008 7.89125 20.14C7.65125 20.38 7.35417 20.5 7 20.5ZM17 20.5C16.6458 20.5 16.3492 20.38 16.11 20.14C15.87 19.9008 15.75 19.6042 15.75 19.25C15.75 18.8958 15.87 18.5992 16.11 18.36C16.3492 18.12 16.6458 18 17 18C17.3542 18 17.6508 18.12 17.89 18.36C18.13 18.5992 18.25 18.8958 18.25 19.25C18.25 19.6042 18.13 19.9008 17.89 20.14C17.6508 20.38 17.3542 20.5 17 20.5Z"/>
</svg>
