<svg width="28" height="16" viewBox="0 0 28 16" xmlns="http://www.w3.org/2000/svg">
    <path d="M14 4.77536C14.9946 4.77536 15.9484 5.10947 16.6517 5.70418C17.3549 6.2989 17.75 7.1055 17.75 7.94656C17.75 8.78761 17.3549 9.59422 16.6517 10.1889C15.9484 10.7837 14.9946 11.1178 14 11.1178C13.0054 11.1178 12.0516 10.7837 11.3483 10.1889C10.6451 9.59422 10.25 8.78761 10.25 7.94656C10.25 7.1055 10.6451 6.2989 11.3483 5.70418C12.0516 5.10947 13.0054 4.77536 14 4.77536ZM14 0.0185547C20.25 0.0185547 25.5875 3.30603 27.75 7.94656C25.5875 12.5871 20.25 15.8746 14 15.8746C7.75 15.8746 2.4125 12.5871 0.25 7.94656C2.4125 3.30603 7.75 0.0185547 14 0.0185547ZM2.975 7.94656C3.98532 9.69105 5.55413 11.1608 7.5031 12.1888C9.45206 13.2168 11.703 13.7618 14 13.7618C16.297 13.7618 18.5479 13.2168 20.4969 12.1888C22.4459 11.1608 24.0147 9.69105 25.025 7.94656C24.0147 6.20207 22.4459 4.73228 20.4969 3.70428C18.5479 2.67627 16.297 2.13129 14 2.13129C11.703 2.13129 9.45206 2.67627 7.5031 3.70428C5.55413 4.73228 3.98532 6.20207 2.975 7.94656Z"/>
</svg>
